<svg width="208" height="208" viewBox="0 0 208 208" fill="none" xmlns="http://www.w3.org/2000/svg">
<circle cx="104" cy="104" r="104" fill="#FF2E2E"/>
<circle cx="105" cy="105" r="82" fill="white"/>
<rect x="158.386" y="170.079" width="170" height="19" transform="rotate(-135 158.386 170.079)" fill="#FF2E2E"/>
<path d="M110.243 44.7574C107.899 42.4142 104.101 42.4142 101.757 44.7574L63.5736 82.9411C61.2304 85.2843 61.2304 89.0833 63.5736 91.4264C65.9167 93.7696 69.7157 93.7696 72.0589 91.4264L106 57.4853L139.941 91.4264C142.284 93.7696 146.083 93.7696 148.426 91.4264C150.77 89.0833 150.77 85.2843 148.426 82.9411L110.243 44.7574ZM112 158V49H100V158H112Z" fill="#3884F7"/>
</svg>
